<svg width="134" height="40" viewBox="0 0 134 40" fill="none" xmlns="http://www.w3.org/2000/svg">
<path d="M128.918 40H4.99899C2.42417 40 0.328369 37.872 0.328369 35.267V4.726C0.328369 2.12 2.42417 0 4.99899 0H128.918C131.492 0 133.662 2.12 133.662 4.726V35.267C133.662 37.872 131.492 40 128.918 40Z" fill="#A6A6A6"/>
<path d="M132.706 35.2677C132.706 37.3836 131.013 39.0976 128.919 39.0976H4.99912C2.90629 39.0976 1.20752 37.3836 1.20752 35.2677V4.72465C1.20752 2.60965 2.90629 0.889648 4.99912 0.889648H128.918C131.013 0.889648 132.705 2.60965 132.705 4.72465L132.706 35.2677Z" fill="black"/>
<path d="M30.0842 19.7826C30.0556 16.5596 32.6906 14.9916 32.8111 14.9186C31.3188 12.7156 29.0057 12.4146 28.1929 12.3906C26.2502 12.1836 24.3657 13.5676 23.3761 13.5676C22.3667 13.5676 20.8427 12.4106 19.2003 12.4446C17.0867 12.4776 15.1094 13.7166 14.025 15.6406C11.7869 19.5636 13.4561 25.3286 15.6003 28.4996C16.6729 30.0526 17.9262 31.7866 19.5667 31.7256C21.1716 31.6586 21.7711 30.6896 23.7079 30.6896C25.6269 30.6896 26.1899 31.7256 27.863 31.6866C29.5855 31.6586 30.6699 30.1266 31.705 28.5596C32.9445 26.7796 33.4423 25.0266 33.462 24.9366C33.4215 24.9226 30.1168 23.6456 30.0842 19.7826Z" fill="#F5F6F7"/>
<path d="M26.9241 10.3051C27.7873 9.21206 28.3779 7.72506 28.2139 6.21606C26.9646 6.27206 25.4021 7.09106 24.5023 8.16006C23.7063 9.10206 22.9952 10.6461 23.1789 12.0981C24.5823 12.2041 26.0233 11.3811 26.9241 10.3051Z" fill="#F5F6F7"/>
<path fillRule="evenodd" clipRule="evenodd" d="M51.0682 31.5044H53.3111L49.0593 18.1964H46.446L42.2148 31.5044H44.3985L45.5689 27.5954H49.8395L51.0682 31.5044ZM48.3575 22.479L49.4686 25.954H45.9397L47.0311 22.479C47.3175 21.374 47.5259 20.538 47.6553 19.972H47.6948C48.0197 21.288 48.24 22.124 48.3575 22.479Z" fill="#F5F6F7"/>
<path fillRule="evenodd" clipRule="evenodd" d="M62.8864 30.4566C63.7575 29.5096 64.1931 28.2196 64.1931 26.5876C64.1931 25.1266 63.8197 23.9486 63.0711 23.0526C62.3244 22.1576 61.3911 21.7106 60.2731 21.7106C58.843 21.7106 57.7773 22.2826 57.0751 23.4286H57.0355L56.918 21.9076H55.0662C55.1175 22.9876 55.1442 24.0406 55.1442 25.0666V35.4136H57.2499V30.3586H57.2894C57.8355 31.2666 58.7323 31.7206 59.9807 31.7206C61.1373 31.7206 62.1062 31.2996 62.8864 30.4566ZM61.4241 24.3559C61.8409 24.9619 62.0483 25.7319 62.0483 26.6659C62.0483 27.6799 61.8271 28.4959 61.3846 29.1149C60.9431 29.7329 60.3258 30.0429 59.5327 30.0429C58.8572 30.0429 58.3081 29.8029 57.8853 29.3219C57.4626 28.8409 57.2513 28.2519 57.2513 27.5539V25.9539C57.2513 25.7839 57.2839 25.5679 57.349 25.3039C57.4784 24.7379 57.755 24.2809 58.1777 23.9309C58.5994 23.5839 59.0715 23.4079 59.591 23.4079C60.3574 23.4079 60.9688 23.7239 61.4241 24.3559Z" fill="#F5F6F7"/>
<path fillRule="evenodd" clipRule="evenodd" d="M73.7863 30.4566C74.6584 29.5096 75.0939 28.2196 75.0939 26.5876C75.0939 25.1266 74.7196 23.9486 73.9739 23.0526C73.2253 22.1576 72.292 21.7106 71.1749 21.7106C69.7438 21.7106 68.6781 22.2826 67.9769 23.4286H67.9374L67.8199 21.9076H65.968C66.0194 22.9876 66.046 24.0406 66.046 25.0666V35.4136H68.1517V30.3586H68.1912C68.7364 31.2666 69.6332 31.7206 70.8816 31.7206C72.0381 31.7206 73.007 31.2996 73.7863 30.4566ZM72.3231 24.3559C72.7398 24.9619 72.9482 25.7319 72.9482 26.6659C72.9482 27.6799 72.727 28.4959 72.2845 29.1149C71.8431 29.7329 71.2258 30.0429 70.4327 30.0429C69.7552 30.0429 69.206 29.8019 68.7833 29.3219C68.3626 28.8409 68.1512 28.2519 68.1512 27.5539V25.9539C68.1512 25.7839 68.1848 25.5679 68.249 25.3039C68.3784 24.7379 68.6539 24.2809 69.0766 23.9309C69.4994 23.5839 69.9705 23.4079 70.491 23.4079C71.2584 23.4079 71.8678 23.7239 72.3231 24.3559Z" fill="#F5F6F7"/>
<path d="M87.2803 27.7712C87.2803 28.9032 86.8921 29.8242 86.1129 30.5352C85.2566 31.3122 84.0645 31.7002 82.5326 31.7002C81.1183 31.7002 79.9845 31.4242 79.1262 30.8712L79.6141 29.0942C80.5386 29.6602 81.5529 29.9442 82.6581 29.9442C83.4512 29.9442 84.0684 29.7622 84.5119 29.4002C84.9534 29.0382 85.1736 28.5522 85.1736 27.9462C85.1736 27.4062 84.9919 26.9512 84.6275 26.5822C84.265 26.2132 83.6596 25.8702 82.8141 25.5532C80.5129 24.6842 79.3633 23.4112 79.3633 21.7372C79.3633 20.6432 79.7662 19.7462 80.5731 19.0482C81.3771 18.3492 82.4497 18.0002 83.7909 18.0002C84.987 18.0002 85.9805 18.2112 86.7736 18.6322L86.2472 20.3702C85.5065 19.9622 84.6689 19.7582 83.7317 19.7582C82.9909 19.7582 82.4121 19.9432 81.9973 20.3112C81.6467 20.6402 81.4709 21.0412 81.4709 21.5162C81.4709 22.0422 81.6714 22.4772 82.0744 22.8192C82.425 23.1352 83.062 23.4772 83.9865 23.8462C85.1173 24.3072 85.9479 24.8462 86.4823 25.4642C87.0146 26.0802 87.2803 26.8512 87.2803 27.7712Z" fill="#F5F6F7"/>
<path d="M94.2418 23.5071H91.9208V28.1661C91.9208 29.3511 92.3297 29.9431 93.1495 29.9431C93.5258 29.9431 93.8379 29.9101 94.0848 29.8441L94.1431 31.4631C93.7282 31.6201 93.1821 31.6991 92.5055 31.6991C91.6739 31.6991 91.024 31.4421 90.5549 30.9291C90.0877 30.4151 89.8527 29.5531 89.8527 28.3421V23.5051H88.47V21.9051H89.8527V20.1481L91.9208 19.5161V21.9051H94.2418V23.5071Z" fill="#F5F6F7"/>
<path fillRule="evenodd" clipRule="evenodd" d="M103.468 30.2586C104.299 29.3116 104.716 28.1006 104.716 26.6256C104.716 25.1906 104.313 24.0196 103.505 23.1126C102.661 22.1776 101.542 21.7106 100.151 21.7106C98.7082 21.7106 97.5605 22.1846 96.7101 23.1326C95.8578 24.0796 95.4331 25.2976 95.4331 26.7846C95.4331 28.2056 95.8459 29.3846 96.6716 30.3186C97.4973 31.2526 98.6045 31.7196 99.9951 31.7196C101.438 31.7196 102.596 31.2336 103.468 30.2586ZM101.966 24.4184C102.344 25.0514 102.531 25.8104 102.531 26.6954C102.531 27.5794 102.336 28.3464 101.947 28.9914C101.492 29.7694 100.861 30.1594 100.057 30.1594C99.2363 30.1594 98.6003 29.7774 98.145 29.0114C97.7667 28.3794 97.58 27.6204 97.58 26.7354C97.58 25.8234 97.7667 25.0524 98.145 24.4184C98.5864 23.6534 99.2294 23.2704 100.076 23.2704C100.894 23.2704 101.525 23.6524 101.966 24.4184Z" fill="#F5F6F7"/>
<path d="M111.559 23.7838C111.35 23.7448 111.128 23.7248 110.895 23.7248C110.154 23.7248 109.581 24.0078 109.178 24.5748C108.828 25.0748 108.652 25.7068 108.652 26.4698V31.5048H106.547L106.567 24.9308C106.567 23.8248 106.54 22.8178 106.488 21.9098H108.322L108.399 23.7458H108.457C108.68 23.1148 109.03 22.6068 109.51 22.2258C109.979 21.8828 110.486 21.7118 111.032 21.7118C111.227 21.7118 111.403 21.7258 111.559 21.7508V23.7838Z" fill="#F5F6F7"/>
<path fillRule="evenodd" clipRule="evenodd" d="M120.899 27.2178C120.952 26.9548 120.976 26.6328 120.976 26.2508C120.976 25.0538 120.697 24.0458 120.141 23.2308C119.439 22.2048 118.405 21.6918 117.039 21.6918C115.648 21.6918 114.543 22.2048 113.725 23.2308C112.944 24.1918 112.554 25.3968 112.554 26.8438C112.554 28.3178 112.973 29.4928 113.811 30.3678C114.651 31.2428 115.804 31.6808 117.274 31.6808C118.495 31.6808 119.554 31.4838 120.451 31.0878L120.121 29.6078C119.354 29.9108 118.5 30.0618 117.565 30.0618C116.72 30.0618 116.031 29.8378 115.499 29.3908C114.912 28.8908 114.607 28.1658 114.582 27.2178H120.899ZM118.56 24.0604C118.845 24.5214 118.982 25.0674 118.968 25.6994V25.6984H114.582C114.646 25.0544 114.855 24.5014 115.205 24.0404C115.633 23.4604 116.193 23.1714 116.882 23.1714C117.635 23.1714 118.195 23.4674 118.56 24.0604Z" fill="#F5F6F7"/>
<path fillRule="evenodd" clipRule="evenodd" d="M47.7273 12.664C48.4236 12.069 48.7723 11.183 48.7723 10.006C48.7723 8.95802 48.4493 8.15302 47.8053 7.59002C47.2305 7.09202 46.3782 6.84302 45.2473 6.84302C44.6073 6.84302 44.0147 6.88902 43.4646 6.97902V13.41C43.8863 13.462 44.39 13.488 44.9787 13.488C46.1658 13.488 47.0824 13.213 47.7273 12.664ZM47.0821 8.2788C47.4811 8.6868 47.6806 9.2718 47.6806 10.0348C47.6806 10.8888 47.4633 11.5388 47.0327 11.9848C46.6021 12.4308 45.9908 12.6538 45.1987 12.6538C44.8599 12.6538 44.6268 12.6448 44.4994 12.6248V7.7358C44.7295 7.6898 45.007 7.6678 45.333 7.6678C46.1004 7.6678 46.6831 7.8718 47.0821 8.2788Z" fill="#F5F6F7"/>
<path fillRule="evenodd" clipRule="evenodd" d="M53.9457 12.8216C54.3546 12.3556 54.559 11.7616 54.559 11.0366C54.559 10.3326 54.3605 9.75656 53.9654 9.31056C53.5496 8.85156 53.0005 8.62256 52.317 8.62256C51.6079 8.62256 51.0449 8.85556 50.6262 9.32056C50.2074 9.78556 49.999 10.3846 49.999 11.1146C49.999 11.8126 50.2015 12.3916 50.6064 12.8506C51.0124 13.3106 51.5566 13.5396 52.24 13.5396C52.9491 13.5396 53.517 13.3006 53.9457 12.8216ZM53.207 9.95025C53.3917 10.2612 53.4845 10.6342 53.4845 11.0692C53.4845 11.5042 53.3887 11.8802 53.1971 12.1972C52.9739 12.5802 52.6638 12.7712 52.2687 12.7712C51.8658 12.7712 51.5537 12.5832 51.3295 12.2072C51.1448 11.8962 51.052 11.5232 51.052 11.0882C51.052 10.6402 51.1438 10.2612 51.3295 9.95025C51.5468 9.57425 51.8628 9.38625 52.2786 9.38625C52.6806 9.38625 52.9897 9.57425 53.207 9.95025Z" fill="#F5F6F7"/>
<path d="M62.3184 8.71521L60.8616 13.4292H59.9135L59.31 11.3822C59.157 10.8712 59.0325 10.3632 58.9357 9.85921H58.917C58.8271 10.3772 58.7026 10.8842 58.5426 11.3822L57.9016 13.4292H56.9426L55.5728 8.71521H56.6365L57.1629 10.9562C57.2903 11.4862 57.395 11.9912 57.4789 12.4692H57.4977C57.5747 12.0752 57.7021 11.5732 57.8819 10.9662L58.5426 8.71621H59.3861L60.0192 10.9182C60.1723 11.4552 60.2967 11.9722 60.3925 12.4702H60.4211C60.4913 11.9852 60.597 11.4682 60.7372 10.9182L61.3021 8.71621H62.3184V8.71521Z" fill="#F5F6F7"/>
<path d="M67.6838 13.4288H66.6487V10.7288C66.6487 9.89684 66.3366 9.48084 65.7104 9.48084C65.4033 9.48084 65.1554 9.59484 64.9628 9.82384C64.7722 10.0528 64.6754 10.3228 64.6754 10.6318V13.4278H63.6403V10.0618C63.6403 9.64784 63.6275 9.19884 63.6028 8.71284H64.5124L64.5608 9.44984H64.5894C64.7099 9.22084 64.8897 9.03184 65.1257 8.88084C65.4062 8.70484 65.7203 8.61584 66.064 8.61584C66.4986 8.61584 66.8601 8.75784 67.1475 9.04284C67.505 9.39184 67.6838 9.91284 67.6838 10.6048V13.4288Z" fill="#F5F6F7"/>
<path d="M70.5382 13.431H69.5042V6.55396H70.5382V13.431Z" fill="#F5F6F7"/>
<path fillRule="evenodd" clipRule="evenodd" d="M76.0202 12.8216C76.429 12.3556 76.6335 11.7616 76.6335 11.0366C76.6335 10.3326 76.435 9.75656 76.0399 9.31056C75.6231 8.85156 75.075 8.62256 74.3905 8.62256C73.6824 8.62256 73.1194 8.85556 72.7006 9.32056C72.2819 9.78556 72.0735 10.3846 72.0735 11.1146C72.0735 11.8126 72.276 12.3916 72.6809 12.8506C73.0858 13.3106 73.63 13.5396 74.3145 13.5396C75.0226 13.5396 75.5915 13.3006 76.0202 12.8216ZM75.2805 9.95025C75.4652 10.2612 75.558 10.6342 75.558 11.0692C75.558 11.5042 75.4632 11.8802 75.2706 12.1972C75.0474 12.5802 74.7383 12.7712 74.3432 12.7712C73.9402 12.7712 73.6281 12.5832 73.404 12.2072C73.2193 11.8962 73.1264 11.5232 73.1264 11.0882C73.1264 10.6402 73.2183 10.2612 73.404 9.95025C73.6202 9.57425 73.9363 9.38625 74.3531 9.38625C74.7541 9.38625 75.0642 9.57425 75.2805 9.95025Z" fill="#F5F6F7"/>
<path fillRule="evenodd" clipRule="evenodd" d="M80.7119 13.4326H81.6413C81.5969 13.1546 81.5742 12.7796 81.5742 12.3086V10.5726C81.5742 9.27256 80.9638 8.62256 79.747 8.62256C79.1169 8.62256 78.5825 8.75856 78.15 9.02956L78.3603 9.71756C78.71 9.48556 79.1149 9.36856 79.5742 9.36856C80.2191 9.36856 80.5411 9.67856 80.5411 10.2996V10.3876C79.6788 10.3806 79.0092 10.5296 78.5332 10.8336C78.0561 11.1376 77.8191 11.5766 77.8191 12.1526C77.8191 12.5336 77.9406 12.8546 78.1835 13.1126C78.4512 13.3966 78.8067 13.5396 79.2463 13.5396C79.8349 13.5396 80.2882 13.3226 80.6063 12.8896H80.6349L80.7119 13.4326ZM80.5665 11.0863V11.8133C80.5665 11.8843 80.5606 11.9463 80.5497 11.9973C80.5052 12.2243 80.3857 12.4093 80.1912 12.5553C79.9976 12.7003 79.7852 12.7733 79.5581 12.7733C79.3556 12.7733 79.1857 12.7123 79.0524 12.5893C78.9191 12.4663 78.8539 12.2823 78.8539 12.0363C78.8539 11.3833 79.4248 11.0663 80.5665 11.0863Z" fill="#F5F6F7"/>
<path fillRule="evenodd" clipRule="evenodd" d="M86.6041 13.4306H87.5226C87.4979 13.0426 87.486 12.6196 87.486 12.1606V6.55359H86.45V9.25959H86.4302C86.1813 8.83259 85.7438 8.61959 85.1186 8.61959C84.5497 8.61959 84.0717 8.83959 83.6816 9.27959C83.2786 9.75159 83.0781 10.3696 83.0781 11.1326C83.0781 11.8436 83.2628 12.4226 83.6332 12.8686C84.0036 13.3146 84.4707 13.5376 85.0317 13.5376C85.7339 13.5376 86.2337 13.2496 86.527 12.6736H86.5557L86.6041 13.4306ZM86.4497 10.6566V11.4426C86.4497 11.7786 86.352 12.0666 86.1525 12.3056C85.946 12.5646 85.6744 12.6936 85.3347 12.6936C84.9564 12.6936 84.6542 12.5386 84.43 12.2286C84.2176 11.9376 84.112 11.5596 84.112 11.0936C84.112 10.6086 84.2236 10.2116 84.4438 9.9006C84.666 9.5896 84.9683 9.4346 85.3544 9.4346C85.6221 9.4346 85.8542 9.5206 86.0468 9.6916C86.2374 9.8626 86.3628 10.0746 86.4211 10.3266C86.4399 10.4106 86.4497 10.5206 86.4497 10.6566Z" fill="#F5F6F7"/>
<path fillRule="evenodd" clipRule="evenodd" d="M95.7626 12.8216C96.1715 12.3556 96.3759 11.7616 96.3759 11.0366C96.3759 10.3326 96.1774 9.75656 95.7823 9.31056C95.3675 8.85156 94.8174 8.62256 94.1349 8.62256C93.4248 8.62256 92.8618 8.85556 92.4431 9.32056C92.0243 9.78556 91.8159 10.3846 91.8159 11.1146C91.8159 11.8126 92.0184 12.3916 92.4233 12.8506C92.8302 13.3106 93.3744 13.5396 94.0569 13.5396C94.767 13.5396 95.3339 13.3006 95.7626 12.8216ZM95.0249 9.95025C95.2096 10.2612 95.3024 10.6342 95.3024 11.0692C95.3024 11.5042 95.2056 11.8802 95.015 12.1972C94.7918 12.5802 94.4807 12.7712 94.0856 12.7712C93.6827 12.7712 93.3706 12.5832 93.1464 12.2072C92.9617 11.8962 92.8689 11.5232 92.8689 11.0882C92.8689 10.6402 92.9607 10.2612 93.1464 9.95025C93.3647 9.57425 93.6807 9.38625 94.0955 9.38625C94.4985 9.38625 94.8066 9.57425 95.0249 9.95025Z" fill="#F5F6F7"/>
<path d="M101.941 13.4288H100.907V10.7288C100.907 9.89684 100.595 9.48084 99.9675 9.48084C99.6603 9.48084 99.4124 9.59484 99.2208 9.82384C99.0292 10.0528 98.9334 10.3228 98.9334 10.6318V13.4278H97.8974V10.0618C97.8974 9.64784 97.8855 9.19884 97.8608 8.71284H98.7695L98.8179 9.44984H98.8465C98.968 9.22084 99.1478 9.03184 99.3828 8.88084C99.6643 8.70484 99.9774 8.61584 100.322 8.61584C100.756 8.61584 101.117 8.75784 101.405 9.04284C101.763 9.39184 101.941 9.91284 101.941 10.6048V13.4288Z" fill="#F5F6F7"/>
<path d="M108.907 9.50197H107.767V11.792C107.767 12.374 107.97 12.665 108.371 12.665C108.556 12.665 108.711 12.649 108.832 12.616L108.859 13.411C108.654 13.489 108.386 13.528 108.055 13.528C107.646 13.528 107.328 13.402 107.098 13.15C106.867 12.898 106.752 12.474 106.752 11.879V9.50197H106.072V8.71697H106.752V7.85297L107.766 7.54297V8.71597H108.906V9.50197H108.907Z" fill="#F5F6F7"/>
<path d="M114.386 13.431H113.35V10.751C113.35 9.90596 113.038 9.48296 112.412 9.48296C111.932 9.48296 111.605 9.72796 111.425 10.218C111.394 10.321 111.376 10.447 111.376 10.595V13.43H110.342V6.55396H111.376V9.39496H111.396C111.722 8.87796 112.189 8.61996 112.795 8.61996C113.223 8.61996 113.578 8.76196 113.859 9.04696C114.21 9.40196 114.386 9.92996 114.386 10.628V13.431Z" fill="#F5F6F7"/>
<path fillRule="evenodd" clipRule="evenodd" d="M120 11.3234C120.025 11.1944 120.039 11.0364 120.039 10.8484C120.039 10.2604 119.902 9.76537 119.624 9.36537C119.28 8.86137 118.772 8.60938 118.102 8.60938C117.418 8.60938 116.875 8.86137 116.474 9.36537C116.09 9.83737 115.9 10.4294 115.9 11.1404C115.9 11.8644 116.104 12.4414 116.517 12.8714C116.928 13.3014 117.496 13.5164 118.217 13.5164C118.818 13.5164 119.338 13.4194 119.779 13.2254L119.617 12.4974C119.24 12.6464 118.821 12.7204 118.362 12.7204C117.947 12.7204 117.608 12.6104 117.345 12.3904C117.058 12.1444 116.91 11.7894 116.896 11.3234H120ZM118.85 9.76997C118.99 9.99597 119.058 10.264 119.05 10.575H116.895C116.929 10.258 117.031 9.98697 117.202 9.75997C117.413 9.47497 117.688 9.33297 118.026 9.33297C118.396 9.33297 118.67 9.47897 118.85 9.76997Z" fill="#F5F6F7"/>
</svg>
