<svg width="134" height="40" viewBox="0 0 134 40" fill="none" xmlns="http://www.w3.org/2000/svg">
<path d="M128.389 40H4.93991C2.21732 40 0 37.7456 0 35V5C0 2.24439 2.21732 0 4.93991 0H128.389C131.109 0 133.328 2.24439 133.328 5V35C133.328 37.7456 131.109 40 128.389 40Z" fill="black"/>
<path fill-rule="evenodd" clip-rule="evenodd" d="M128.389 0.799962C130.672 0.799962 132.541 2.68774 132.541 4.99946V34.9995C132.541 37.3112 130.685 39.199 128.389 39.199H4.94012C2.65657 39.199 0.787552 37.3112 0.787552 34.9995V4.99946C0.787552 2.68774 2.64431 0.799962 4.94012 0.799962H128.389ZM128.389 0H4.93991C2.21732 0 0 2.25436 0 5V35C0 37.7556 2.21732 40 4.93991 40H128.389C131.109 40 133.328 37.7556 133.328 35V5C133.328 2.25436 131.109 0 128.389 0Z" fill="#A6A6A6"/>
<path fill-rule="evenodd" clip-rule="evenodd" d="M68.0038 12.2912C68.5974 12.9146 69.3479 13.2313 70.2383 13.2313C71.1286 13.2313 71.8792 12.9171 72.4703 12.2887C73.059 11.6802 73.3631 10.9097 73.3729 9.99693C73.3729 9.10666 73.0688 8.33609 72.4703 7.70516C71.8669 7.08172 71.1164 6.76501 70.2358 6.76501C69.3455 6.76501 68.5949 7.08172 68.0038 7.70516C67.4053 8.31614 67.1012 9.08671 67.1012 9.99693C67.0865 10.8498 67.4151 11.6852 68.0038 12.2912ZM41.5016 12.3031C42.1197 12.919 42.8752 13.2308 43.7459 13.2308C44.6534 13.2308 45.404 12.9215 45.9779 12.3131C46.4832 11.7993 46.7383 11.1036 46.7383 10.2432C46.7383 10.0936 46.7162 9.93151 46.6941 9.77441L46.6819 9.68962H43.6355V10.6223H45.767C45.713 11.0637 45.561 11.4128 45.3157 11.6622C44.9012 12.0861 44.3689 12.3006 43.7361 12.3006C43.1425 12.3006 42.625 12.0861 42.1982 11.6622C41.769 11.2358 41.5507 10.6771 41.5507 10.0013C41.5507 9.32553 41.769 8.76692 42.1982 8.34049C42.625 7.91655 43.1425 7.70209 43.7361 7.70209C44.4008 7.70209 44.9036 7.92403 45.2789 8.3779L45.3476 8.46019L46.0123 7.79685L45.9534 7.72453C45.7155 7.43775 45.3942 7.20333 44.9993 7.03126C44.597 6.85421 44.1776 6.76692 43.7459 6.76692C42.8629 6.76692 42.1074 7.07864 41.5016 7.6946C40.8884 8.30807 40.5769 9.08363 40.5769 9.99884C40.5769 10.9141 40.8884 11.6896 41.5016 12.3031ZM78.9697 13.1001H78.0303L75.1532 8.41927L75.1777 9.26216V13.0976H74.2383V6.90057H75.3102L75.3396 6.94795L78.045 11.3569L78.0205 10.5165V6.90057H78.9697V13.1001ZM62.2276 13.1001H63.1769V7.83324H64.8276V6.90057H60.5769V7.83324H62.2276V13.1001ZM59.8021 13.1001H58.8529V6.90057H59.8021V13.1001ZM53.5178 13.1001H54.467V7.83324H56.1177V6.90057H51.8671V7.83324H53.5178V13.1001ZM51.2666 13.0901H47.6267V6.90057H51.2666V7.83324H48.5784V9.53399H51.0042V10.4567H48.5784V12.1574H51.2666V13.0901ZM70.2382 12.299C69.6397 12.299 69.1246 12.0821 68.7003 11.6507C68.2857 11.2292 68.0773 10.6706 68.0773 9.99978C68.0773 9.32896 68.2882 8.77285 68.7052 8.34891C69.1221 7.9125 69.625 7.70053 70.2406 7.70053C70.8366 7.70053 71.3542 7.91749 71.7785 8.34891C72.193 8.77036 72.404 9.32896 72.404 9.99978C72.404 10.6706 72.193 11.2267 71.7761 11.6507C71.3566 12.0871 70.8538 12.299 70.2382 12.299Z" fill="#F5F6F7"/>
<path fill-rule="evenodd" clip-rule="evenodd" d="M67.0125 21.7526C64.6946 21.7526 62.8158 23.5407 62.8158 26.007C62.8158 28.4509 64.7069 30.2613 67.0125 30.2613C69.3304 30.2613 71.2092 28.4609 71.2092 26.007C71.2092 23.5407 69.3304 21.7526 67.0125 21.7526ZM67.013 28.5765C65.7449 28.5765 64.6534 27.5091 64.6534 25.9979C64.6534 24.4643 65.7474 23.4194 67.013 23.4194C68.2811 23.4194 69.3726 24.4643 69.3726 25.9979C69.375 27.5191 68.2811 28.5765 67.013 28.5765ZM57.8559 21.7526C55.538 21.7526 53.6592 23.5407 53.6592 26.007C53.6592 28.4509 55.5503 30.2613 57.8559 30.2613C60.1738 30.2613 62.0526 28.4609 62.0526 26.007C62.0526 23.5407 60.1713 21.7526 57.8559 21.7526ZM57.8564 28.5765C56.5883 28.5765 55.4968 27.5091 55.4968 25.9979C55.4968 24.4643 56.5908 23.4194 57.8564 23.4194C59.1245 23.4194 60.216 24.4643 60.216 25.9979C60.216 27.5191 59.1245 28.5765 57.8564 28.5765ZM46.9611 23.0536V24.8541H51.2118C51.0818 25.864 50.7531 26.6097 50.2503 27.1209C49.6273 27.7543 48.6658 28.4426 46.971 28.4426C44.3587 28.4426 42.3156 26.298 42.3156 23.6421C42.3156 20.9862 44.3587 18.8416 46.971 18.8416C48.3813 18.8416 49.409 19.4077 50.1718 20.1309L51.4277 18.8541C50.3681 17.8217 48.9577 17.0311 46.9808 17.0311C43.3972 17.0311 40.3901 19.9987 40.3901 23.6321C40.3901 27.2755 43.3948 30.2331 46.9808 30.2331C48.916 30.2331 50.3681 29.5897 51.516 28.3778C52.6859 27.1882 53.0563 25.5099 53.0563 24.1558C53.0563 23.7344 53.0244 23.3553 52.9582 23.0336H46.9587C46.9611 23.0311 46.9611 23.0536 46.9611 23.0536ZM91.5261 24.4519C91.1754 23.4968 90.1158 21.7412 87.9426 21.7412C85.7891 21.7412 83.9986 23.4644 83.9986 25.9955C83.9986 28.3846 85.7695 30.2499 88.1511 30.2499C90.0643 30.2499 91.1779 29.0604 91.6365 28.3621L90.2164 27.3945C89.7454 28.1053 89.0905 28.5716 88.1609 28.5716C87.2215 28.5716 86.5642 28.1377 86.1276 27.2823L91.7224 24.9257C91.7224 24.9282 91.5261 24.4519 91.5261 24.4519ZM85.821 25.8772C85.7769 24.2338 87.0769 23.3984 88.0065 23.3984C88.7399 23.3984 89.3506 23.7649 89.5591 24.2986L85.821 25.8772ZM81.276 29.9995H83.1131V17.5008H81.276V29.9995ZM78.2583 22.6963H78.1921C77.7776 22.195 76.9903 21.7412 75.9846 21.7412C73.8973 21.7412 71.9743 23.609 71.9743 26.008C71.9743 28.397 73.8875 30.2424 75.9846 30.2424C76.978 30.2424 77.7776 29.7861 78.1921 29.2748H78.2583V29.8858C78.2583 31.5092 77.4048 32.3846 76.0288 32.3846C74.9029 32.3846 74.2039 31.5616 73.9194 30.8733L72.3226 31.5516C72.7813 32.6738 74.0052 34.0629 76.0263 34.0629C78.1799 34.0629 80.0047 32.7736 80.0047 29.6289V21.9955H78.2682V22.6963C78.2706 22.6963 78.2583 22.6963 78.2583 22.6963ZM76.1492 28.5759C74.8811 28.5759 73.8215 27.4986 73.8215 26.0098C73.8215 24.5086 74.8811 23.4213 76.1492 23.4213C77.405 23.4213 78.3787 24.521 78.3787 26.0098C78.391 27.4986 77.4074 28.5759 76.1492 28.5759ZM100.128 17.5008H95.7355V29.9995H97.5726V25.2664H100.131C102.164 25.2664 104.163 23.7676 104.163 21.3886C104.163 19.0095 102.172 17.5008 100.128 17.5008ZM100.182 23.5179H97.5702V19.2286H100.182C101.558 19.2286 102.336 20.3832 102.336 21.3733C102.336 22.3533 101.549 23.5179 100.182 23.5179ZM111.526 21.7316C110.191 21.7316 108.815 22.3326 108.246 23.6418L109.875 24.3301C110.226 23.6418 110.868 23.4074 111.548 23.4074C112.499 23.4074 113.461 23.986 113.483 25.0184V25.1506C113.154 24.961 112.433 24.6718 111.57 24.6718C109.811 24.6718 108.028 25.6493 108.028 27.4822C108.028 29.1605 109.47 30.2379 111.077 30.2379C112.311 30.2379 112.99 29.6718 113.414 29.0159H113.48V29.9835H115.251V25.1955C115.251 22.966 113.623 21.7316 111.526 21.7316ZM111.294 28.5759C110.694 28.5759 109.852 28.2766 109.852 27.5085C109.852 26.541 110.902 26.1744 111.797 26.1744C112.607 26.1744 112.989 26.3514 113.47 26.5958C113.338 27.718 112.406 28.5659 111.294 28.5759ZM121.713 22.0008L119.603 27.4223H119.537L117.352 22.0008H115.375L118.654 29.5794L116.785 33.7913H118.698L123.744 22.0008H121.713ZM105.176 29.9995H107.013V17.5008H105.176V29.9995Z" fill="#F5F6F7"/>
<path fill-rule="evenodd" clip-rule="evenodd" d="M10.2623 7.53425C9.97781 7.84597 9.81348 8.32228 9.81348 8.94572V31.0579C9.81348 31.6814 9.97781 32.1577 10.2721 32.4569L10.3482 32.5243L22.5336 20.1352V19.8584L10.3384 7.46692L10.2623 7.53425Z" fill="url(#paint0_linear_2643_856)"/>
<path fill-rule="evenodd" clip-rule="evenodd" d="M26.5872 24.278L22.5229 20.1458V19.8565L26.5872 15.7244L26.6755 15.7792L31.483 18.5573C32.859 19.3453 32.859 20.6471 31.483 21.4451L26.6755 24.2231L26.5872 24.278Z" fill="url(#paint1_linear_2643_856)"/>
<path fill-rule="evenodd" clip-rule="evenodd" d="M26.677 24.221L22.5244 19.999L10.2629 32.4654C10.7118 32.9541 11.4648 33.009 12.3061 32.5327L26.677 24.221Z" fill="url(#paint2_linear_2643_856)"/>
<path fill-rule="evenodd" clip-rule="evenodd" d="M26.677 15.7762L12.3061 7.47699C11.4648 6.98821 10.7093 7.05554 10.2629 7.54432L22.5244 19.9982L26.677 15.7762Z" fill="url(#paint3_linear_2643_856)"/>
<path opacity="0.2" d="M26.5884 24.1324L12.3156 32.3768C11.5185 32.8432 10.8072 32.8108 10.3485 32.3868L10.2725 32.4641L10.3485 32.5314C10.8072 32.9529 11.5185 32.9878 12.3156 32.5215L26.6865 24.2222L26.5884 24.1324Z" fill="black"/>
<path opacity="0.12" d="M31.4835 21.2983L26.5754 24.1312L26.6637 24.221L31.4712 21.4429C32.1604 21.0439 32.4989 20.5202 32.4989 19.999C32.4572 20.4778 32.1065 20.9317 31.4835 21.2983Z" fill="black"/>
<path opacity="0.25" fill-rule="evenodd" clip-rule="evenodd" d="M12.3055 7.62415L31.4838 18.7015C32.1068 19.0581 32.4576 19.5244 32.5115 20.0007C32.5115 19.4795 32.1731 18.9558 31.4838 18.5568L12.3055 7.47951C10.9295 6.67901 9.81348 7.34734 9.81348 8.94584V9.09048C9.81348 7.48949 10.9295 6.83362 12.3055 7.62415Z" fill="#F5F6F7"/>
<defs>
<linearGradient id="paint0_linear_2643_856" x1="17.1809" y1="-7.5509" x2="-2.37997" y2="-2.42581" gradientUnits="userSpaceOnUse">
<stop stop-color="#00A0FF"/>
<stop offset="0.00657" stop-color="#00A1FF"/>
<stop offset="0.2601" stop-color="#00BEFF"/>
<stop offset="0.5122" stop-color="#00D2FF"/>
<stop offset="0.7604" stop-color="#00DFFF"/>
<stop offset="1" stop-color="#00E3FF"/>
</linearGradient>
<linearGradient id="paint1_linear_2643_856" x1="33.2774" y1="9.81462" x2="9.47819" y2="9.81462" gradientUnits="userSpaceOnUse">
<stop stop-color="#FFE000"/>
<stop offset="0.4087" stop-color="#FFBD00"/>
<stop offset="0.7754" stop-color="#FFA500"/>
<stop offset="1" stop-color="#FF9C00"/>
</linearGradient>
<linearGradient id="paint2_linear_2643_856" x1="9.89901" y1="13.5253" x2="-6.15742" y2="40.1058" gradientUnits="userSpaceOnUse">
<stop stop-color="#FF3A44"/>
<stop offset="1" stop-color="#C31162"/>
</linearGradient>
<linearGradient id="paint3_linear_2643_856" x1="0.687706" y1="4.09129" x2="7.85043" y2="15.9629" gradientUnits="userSpaceOnUse">
<stop stop-color="#32A071"/>
<stop offset="0.0685" stop-color="#2DA771"/>
<stop offset="0.4762" stop-color="#15CF74"/>
<stop offset="0.8009" stop-color="#06E775"/>
<stop offset="1" stop-color="#00F076"/>
</linearGradient>
</defs>
</svg>
